<svg xmlns="http://www.w3.org/2000/svg" fill="none" viewBox="0 0 22 22" id="Multiple-Stars--Streamline-Flex-Remix" height="22" width="22">
  <desc>
    Multiple Stars Streamline Icon: https://streamlinehq.com
  </desc>
  <g id="multiple-stars--reward-rating-rate-social-star-media-favorite-like-stars-spark">
    <path id="Union" fill="#000000" fill-rule="evenodd" d="M3.0849971428571425 0.6008828571428572c0.6296085714285714 -0.8011771428571428 1.832427142857143 -0.8011771428571428 2.4620357142857143 0 0.37781857142857145 0.48078171428571426 0.6586957142857143 1.043302857142857 0.8153357142857143 1.6688100000000001 0.6255228571428572 0.1566557142857143 1.1880314285714286 0.4375171428571428 1.6688257142857141 0.8153514285714285 0.8011771428571428 0.6296085714285714 0.8011771428571428 1.832427142857143 0 2.4620357142857143 -0.48077857142857144 0.37781857142857145 -1.0432714285714286 0.6586957142857143 -1.6687785714285712 0.8153357142857143 -0.15664 0.6255228571428572 -0.4375171428571428 1.1880314285714286 -0.8153357142857143 1.6688100000000001 -0.6296085714285714 0.8011771428571428 -1.832427142857143 0.8011771428571428 -2.4620357142857143 0 -0.3778342857142857 -0.48077857142857144 -0.6586957142857143 -1.0432871428571429 -0.8153514285714285 -1.6688100000000001 -0.6255071428571428 -0.15664 -1.1880282857142856 -0.4375171428571428 -1.6688100000000001 -0.8153357142857143 -0.8011771428571428 -0.6296085714285714 -0.8011771428571428 -1.832427142857143 0 -2.4620357142857143 0.4807738571428572 -0.37781857142857145 1.0432557142857142 -0.6586957142857143 1.6687785714285712 -0.8153514285714285 0.15664 -0.6255071428571428 0.43750142857142854 -1.1880282857142856 0.8153357142857143 -1.6688100000000001Zm12.299005714285714 3.6858485714285716c-0.1317642857142857 -0.16768714285714284 -0.36773 -0.16768714285714284 -0.49949428571428567 0 -0.5597585714285714 0.7122814285714286 -0.9409871428571428 1.5892485714285713 -1.0632442857142859 2.6047685714285715 -0.054104285714285716 0.4493971428571429 -0.40832 0.8036128571428571 -0.8577171428571428 0.8577171428571428 -1.0155042857142857 0.12225714285714284 -1.8923928571428572 0.50347 -2.604705714285714 1.0632442857142859 -0.16767142857142858 0.1317642857142857 -0.16767142857142858 0.36773 0 0.49949428571428567 0.7122971428571429 0.5597585714285714 1.5892485714285713 0.9409871428571428 2.6047842857142856 1.0632442857142859 0.44938142857142854 0.054104285714285716 0.8035971428571428 0.40832 0.8577014285714286 0.8577171428571428 0.12225714285714284 1.01552 0.5034857142857143 1.8924871428571428 1.0632442857142859 2.6047685714285715 0.13178 0.16768714285714284 0.36773 0.16768714285714284 0.49950999999999995 0 0.55979 -0.7122814285714286 0.9410185714285714 -1.5892485714285713 1.063275714285714 -2.6047685714285715 0.05405714285714286 -0.4493971428571429 0.4082571428571428 -0.8036128571428571 0.8576857142857142 -0.8577171428571428 1.0154571428571428 -0.12225714285714284 1.8923142857142856 -0.50347 2.6046428571428573 -1.0632442857142859 0.16767142857142858 -0.1317642857142857 0.16767142857142858 -0.36773 0 -0.49949428571428567 -0.7121714285714286 -0.5597585714285714 -1.5891857142857144 -0.9409871428571428 -2.6048 -1.0632442857142859 -0.44927142857142854 -0.054104285714285716 -0.8034714285714285 -0.40832 -0.8576857142857142 -0.8577171428571428 -0.12225714285714284 -1.01552 -0.5034857142857143 -1.8924871428571428 -1.0631971428571427 -2.6047685714285715Zm1.5445257142857143 -1.2137242857142856c0.6394142857142857 0.8138585714285714 1.1051857142857142 1.775572857142857 1.344042857142857 2.8509014285714285 1.0753285714285714 0.23876285714285714 2.037042857142857 0.7045342857142858 2.8508857142857145 1.3441057142857142 1.1683571428571429 0.9182171428571427 1.1683571428571429 2.6701557142857144 0 3.5883885714285717 -0.8138428571428572 0.6395557142857143 -1.7755571428571426 1.1053271428571427 -2.8508857142857145 1.3441057142857142 -0.2387 1.0753285714285714 -0.7044714285714285 2.037042857142857 -1.344042857142857 2.8509014285714285 -0.9181857142857144 1.1684042857142858 -2.6701714285714284 1.1684042857142858 -3.5884042857142853 0 -0.6395714285714286 -0.8138585714285714 -1.1053271428571427 -1.775572857142857 -1.34409 -2.8509014285714285 -1.0753442857142856 -0.23877857142857142 -2.0370585714285716 -0.7045342857142858 -2.8509014285714285 -1.3441057142857142 -1.1684514285714285 -0.9182328571428572 -1.1684514285714285 -2.6701714285714284 0 -3.5883885714285717 0.8138271428571427 -0.6395714285714286 1.775494285714286 -1.1053271428571427 2.850822857142857 -1.3441057142857142 0.23876285714285714 -1.0753285714285714 0.7045342857142858 -2.037042857142857 1.3441057142857142 -2.8509014285714285 0.9182171428571427 -1.1684357142857142 2.670124285714286 -1.1684357142857142 3.588467142857143 0ZM5.736625714285714 12.439994285714286c-0.007118571428571429 0.0033942857142857143 -0.0176 0.009962857142857143 -0.030014285714285712 0.025771428571428574 -0.4343428571428571 0.5526871428571429 -0.7311071428571428 1.2340114285714285 -0.8264771428571428 2.026137142857143 -0.054104285714285716 0.44938142857142854 -0.40832 0.8035971428571428 -0.8577014285714286 0.8577014285714286 -0.79211 0.09537 -1.4733714285714286 0.39218142857142857 -2.02609 0.8265242857142858 -0.015792857142857143 0.012414285714285715 -0.022377142857142856 0.022785714285714288 -0.025771428571428574 0.030014285714285712 -0.00396 0.008328571428571428 -0.006285714285714286 0.01807142857142857 -0.006285714285714286 0.0286 0 0.010528571428571429 0.0023257142857142856 0.020271428571428572 0.006285714285714286 0.0286 0.0033942857142857143 0.0070714285714285705 0.009978571428571429 0.0176 0.025771428571428574 0.030014285714285712 0.552702857142857 0.4343428571428571 1.2340114285714285 0.7311857142857142 2.026152857142857 0.8264142857142858 0.44938142857142854 0.054214285714285715 0.8035971428571428 0.40841428571428573 0.8577014285714286 0.8578428571428572 0.09537 0.792 0.3921342857142857 1.4733714285714286 0.8264771428571428 2.026042857142857 0.012414285714285715 0.01587142857142857 0.022895714285714283 0.022471428571428573 0.030014285714285712 0.025771428571428574 0.008297142857142857 0.003928571428571429 0.018055714285714286 0.006285714285714286 0.028615714285714286 0.006285714285714286 0.010575714285714286 0 0.02031857142857143 -0.002357142857142857 0.028615714285714286 -0.006285714285714286 0.007134285714285714 -0.0032999999999999995 0.017615714285714283 -0.009899999999999999 0.030029999999999998 -0.025771428571428574 0.4343428571428571 -0.5526714285714286 0.7311071428571428 -1.2340428571428572 0.8264771428571428 -2.026042857142857 0.05408857142857142 -0.4494285714285714 0.40832 -0.8036285714285714 0.8577014285714286 -0.8578428571428572 0.79211 -0.09522857142857143 1.4733714285714286 -0.39207142857142857 2.0260742857142855 -0.8264142857142858 0.01580857142857143 -0.012414285714285715 0.022392857142857145 -0.022942857142857143 0.02578714285714286 -0.030014285714285712 0.003944285714285714 -0.008328571428571428 0.006285714285714286 -0.01807142857142857 0.006285714285714286 -0.0286 0 -0.010528571428571429 -0.0023414285714285716 -0.020271428571428572 -0.006285714285714286 -0.0286 -0.0033942857142857143 -0.007228571428571428 -0.009978571428571429 -0.0176 -0.02578714285714286 -0.030014285714285712 -0.5526871428571429 -0.4343428571428571 -1.2340114285714285 -0.7311542857142858 -2.026137142857143 -0.8265242857142858 -0.44938142857142854 -0.054104285714285716 -0.8035971428571428 -0.40832 -0.8577014285714286 -0.8577014285714286 -0.09537 -0.7921257142857142 -0.3921342857142857 -1.47345 -0.8264771428571428 -2.026137142857143 -0.012414285714285715 -0.01580857142857143 -0.022895714285714283 -0.022377142857142856 -0.030014285714285712 -0.025771428571428574 -0.008312857142857143 -0.00396 -0.018055714285714286 -0.006301428571428571 -0.028615714285714286 -0.006301428571428571 -0.010575714285714286 0 -0.02031857142857143 0.0023414285714285716 -0.02863142857142857 0.006301428571428571Zm-1.5744614285714285 -1.1879528571428573c0.8200500000000001 -1.043507142857143 2.38612 -1.043507142857143 3.20617 0 0.5143914285714286 0.6545628571428571 0.8944414285714285 1.422677142857143 1.101382857142857 2.2782257142857145 0.8555328571428571 0.20694142857142858 1.623647142857143 0.5869757142857143 2.27821 1.1013671428571428 1.043507142857143 0.8200500000000001 1.043507142857143 2.3861514285714285 0 3.206122857142857 -0.6545471428571429 0.5144857142857143 -1.4226142857142856 0.894457142857143 -2.278162857142857 1.1014142857142857 -0.20694142857142858 0.8554857142857143 -0.5869914285714285 1.6235999999999997 -1.1013671428571428 2.278257142857143 -0.8200500000000001 1.0434285714285714 -2.38612 1.0434285714285714 -3.20617 0 -0.5143914285714286 -0.6546571428571429 -0.8944414285714285 -1.4227714285714286 -1.101382857142857 -2.278257142857143 -0.8555485714285714 -0.20695714285714287 -1.6236565714285716 -0.5869285714285715 -2.27821 -1.1014142857142857 -1.0435118571428572 -0.8199714285714286 -1.0435118571428572 -2.386072857142857 0 -3.206122857142857 0.654544 -0.5143757142857143 1.4226142857142856 -0.8944257142857143 2.278162857142857 -1.1013671428571428 0.20692571428571427 -0.8555485714285714 0.5869757142857143 -1.623662857142857 1.1013671428571428 -2.2782257142857145Z" clip-rule="evenodd" stroke-width="1.5714"></path>
  </g>
</svg>