<svg xmlns="http://www.w3.org/2000/svg" fill="none" viewBox="0 0 22 22" id="Empty-Clipboard--Streamline-Flex" height="22" width="22">
  <desc>
    Empty Clipboard Streamline Icon: https://streamlinehq.com
  </desc>
  <g id="empty-clipboard--work-plain-clipboard-task-list-company-office">
    <path id="Subtract" fill="#000000" fill-rule="evenodd" d="M5.105995714285714 2.9579314285714284c0 -0.06284142857142856 -0.05454428571428571 -0.11249857142857143 -0.1169142857142857 -0.10475142857142856 -0.050269999999999995 0.006254285714285714 -0.10061857142857143 0.012477142857142855 -0.15109285714285714 0.018668571428571427 -1.110842857142857 0.13647857142857142 -2.008317142857143 1.0305428571428572 -2.0890414285714285 2.1772457142857142 -0.32597714285714285 4.63056 -0.32597714285714285 9.007507142857143 0 13.63802 0.08037857142857142 1.1416428571428572 0.9789371428571427 2.0573142857142854 2.1223557142857143 2.1531714285714285 4.20442 0.35247142857142855 8.05299 0.35247142857142855 12.257425714285715 0 1.1433714285714285 -0.09585714285714285 2.041914285714286 -1.0115285714285716 2.1223714285714284 -2.1531714285714285 0.3259142857142857 -4.630512857142857 0.3259142857142857 -9.00746 0 -13.63802 -0.08077142857142858 -1.1467028571428572 -0.9782142857142858 -2.040767142857143 -2.0890571428571425 -2.1772457142857142 -0.0506 -0.006207142857142857 -0.10104285714285713 -0.01243 -0.15132857142857142 -0.018684285714285712 -0.06238571428571428 -0.0077628571428571425 -0.1169142857142857 0.041909999999999996 -0.1169142857142857 0.10476714285714285 0 2.223932857142857 -1.8028842857142855 4.026785714285714 -4.026817142857143 4.026785714285714H9.132781428571429c-2.223932857142857 0 -4.026785714285714 -1.8028371428571428 -4.026785714285714 -4.026785714285714Zm2.0061799999999996 -0.41565857142857143C7.304502857142857 1.6024328571428572 8.136071428571428 0.8954377142857143 9.132781428571429 0.8954377142857143h3.7342014285714287c1.0377242857142857 0 1.896447142857143 0.7663794285714286 2.0410657142857143 1.7640165714285716 0.014127142857142857 0.09745999999999999 0.02143428571428571 0.19712 0.02143428571428571 0.29847714285714283 0 1.1390971428571428 -0.9234028571428572 2.0625 -2.0625 2.0625H9.132781428571429c-1.1390814285714286 0 -2.0625 -0.9234028571428572 -2.0625 -2.0625 0 -0.10135714285714285 0.007307142857142857 -0.20101714285714287 0.02143428571428571 -0.29847714285714283 0.00572 -0.039427142857142855 0.012555714285714286 -0.07850857142857143 0.02046 -0.11718142857142856Z" clip-rule="evenodd" stroke-width="1.5714"></path>
  </g>
</svg>