<svg xmlns="http://www.w3.org/2000/svg" fill="none" viewBox="0 0 22 22" id="Recycle-Bin-2--Streamline-Plump" height="22" width="22">
  <desc>
    Recycle Bin 2 Streamline Icon: https://streamlinehq.com
  </desc>
  <g id="recycle-bin-2--remove-delete-empty-bin-trash-garbage">
    <path id="Union" fill="#000000" fill-rule="evenodd" d="M7.487195833333333 2.3780579166666667C8.121575 1.2065533333333334 9.353345833333332 0.4583333333333333 10.7111125 0.4583333333333333h0.5779124999999999c1.357675 0 2.5894 0.74812375 3.223779166666666 1.9194954166666667 1.5030583333333332 0.030726666666666666 2.6861541666666664 0.07742166666666665 3.5492874999999997 0.1209175 1.2239333333333333 0.06167791666666666 2.458545833333333 0.7241666666666666 2.836120833333333 2.0217541666666667 0.048812499999999995 0.16783708333333333 0.09450833333333333 0.3464495833333333 0.13484166666666667 0.53491625 0.24736249999999996 1.15665 -0.6312625 2.101366666666667 -1.7193916666666664 2.1933083333333334 -1.4007124999999998 0.11843333333333333 -3.9477625 0.2515333333333333 -8.3241125 0.2515333333333333 -4.375891666666666 0 -6.922895833333333 -0.1331 -8.323663333333334 -0.2514875 -1.0796179166666666 -0.09125416666666666 -1.9880116666666667 -1.0420666666666667 -1.6763954166666666 -2.2100375 0.08635458333333333 -0.323675 0.19228458333333334 -0.6181954166666667 0.30382916666666665 -0.8794958333333334 0.4623116666666667 -1.0829820833333332 1.5531404166666665 -1.5939229166666666 2.6126329166666666 -1.65215875 0.8311508333333333 -0.04568666666666667 2.0178675 -0.09632791666666667 3.5812425 -0.1290208333333333ZM2.5500841666666663 8.618866666666666c-0.10619125 -0.008983333333333333 -0.21250625 -0.0235125 -0.318395 -0.04335833333333333 0.3763420833333333 5.521679166666666 0.7297445833333334 8.496262499999998 0.948695 9.979566666666665 0.15230875 1.0318458333333334 0.8482649999999999 1.9327916666666665 1.9367699999999997 2.194408333333333 1.1208541666666667 0.2693625 3.0025416666666667 0.5625583333333334 5.8837625000000005 0.5625583333333334 2.881175 0 4.7628625 -0.2931958333333333 5.8837625000000005 -0.5625583333333334 1.0884958333333332 -0.26161666666666666 1.7844291666666665 -1.1625625 1.9367333333333332 -2.194408333333333 0.2190375 -1.483625 0.5725041666666667 -4.459216666666666 0.9489791666666666 -9.983279166666666 -0.11279583333333333 0.0215875 -0.2266 0.03735416666666667 -0.3409083333333333 0.047025 -1.450625 0.12260416666666667 -4.038420833333333 0.2563916666666667 -8.439933333333332 0.2563916666666667 -4.4010541666666665 0 -6.988753749999999 -0.13374166666666668 -8.439465833333333 -0.25634583333333333Zm6.612090833333333 3.6648791666666667c-0.05037083333333333 -0.5037541666666666 -0.4995833333333333 -0.8712916666666667 -1.0033374999999998 -0.8209208333333332 -0.5037083333333333 0.05037083333333333 -0.8712458333333333 0.4995833333333333 -0.8208749999999999 1.0033374999999998l0.4583333333333333 4.583333333333333c0.05037083333333333 0.5037541666666666 0.4995833333333333 0.8712916666666667 1.0033374999999998 0.8209208333333332 0.5037083333333333 -0.05037083333333333 0.8712458333333333 -0.4995833333333333 0.8208749999999999 -1.0033374999999998l-0.4583333333333333 -4.583333333333333Zm4.6789875 -0.8209208333333332c-0.5037541666666666 -0.05037083333333333 -0.9529666666666667 0.31716666666666665 -1.0033374999999998 0.8209208333333332l-0.4583333333333333 4.583333333333333c-0.05037083333333333 0.5037541666666666 0.31716666666666665 0.9529666666666667 0.8208749999999999 1.0033374999999998 0.5037541666666666 0.05037083333333333 0.9529666666666667 -0.31716666666666665 1.0033374999999998 -0.8209208333333332l0.4583333333333333 -4.583333333333333c0.05037083333333333 -0.5037541666666666 -0.31716666666666665 -0.9529666666666667 -0.8208749999999999 -1.0033374999999998Z" clip-rule="evenodd" stroke-width="0.4583"></path>
  </g>
</svg>